<svg id="visual" viewBox="0 0 200 400" width="200" height="400" xmlns="http://www.w3.org/2000/svg" xmlns:xlink="http://www.w3.org/1999/xlink" version="1.1"><path d="M129 400L122.5 383.3C116 366.7 103 333.3 95 300C87 266.7 84 233.3 95.3 200C106.7 166.7 132.3 133.3 141.8 100C151.3 66.7 144.7 33.3 141.3 16.7L138 0L200 0L200 16.7C200 33.3 200 66.7 200 100C200 133.3 200 166.7 200 200C200 233.3 200 266.7 200 300C200 333.3 200 366.7 200 383.3L200 400Z" fill="#717A64" stroke-linecap="round" stroke-linejoin="miter"></path></svg>