<svg id="visual" viewBox="0 0 300 400" width="300" height="400" xmlns="http://www.w3.org/2000/svg" xmlns:xlink="http://www.w3.org/1999/xlink" version="1.1"><path d="M138 0L149.8 13.3C161.7 26.7 185.3 53.3 193.5 80C201.7 106.7 194.3 133.3 176.5 160C158.7 186.7 130.3 213.3 112 240C93.7 266.7 85.3 293.3 89.5 320C93.7 346.7 110.3 373.3 118.7 386.7L127 400L0 400L0 386.7C0 373.3 0 346.7 0 320C0 293.3 0 266.7 0 240C0 213.3 0 186.7 0 160C0 133.3 0 106.7 0 80C0 53.3 0 26.7 0 13.3L0 0Z" fill="#717A64" stroke-linecap="round" stroke-linejoin="miter"></path></svg>